<mxfile host="app.diagrams.net" modified="2020-09-29T06:50:07.499Z" agent="5.0 (Macintosh; Intel Mac OS X 10_15_5) AppleWebKit/537.36 (KHTML, like Gecko) Chrome/85.0.4183.121 Safari/537.36" etag="vTDJrT2QtfG63y6fqaHJ" version="13.7.6" type="github">
  <diagram id="cPZTRlWIv1BBcxY1mxdP" name="Page-1">
    <mxGraphModel dx="1906" dy="947" grid="1" gridSize="10" guides="1" tooltips="1" connect="1" arrows="1" fold="1" page="1" pageScale="1" pageWidth="4681" pageHeight="3300" math="0" shadow="0">
      <root>
        <mxCell id="0" />
        <mxCell id="1" parent="0" />
        <mxCell id="UKGjdmG-0EduDdwjn8NC-4" value="&lt;span style=&quot;color: rgb(50 , 50 , 50) ; font-size: 13px ; background-color: rgba(255 , 255 , 255 , 0.01)&quot;&gt;expirationTime:&lt;/span&gt;&lt;div style=&quot;resize: none ; outline: 0px ; font-size: 13px ; color: rgb(50 , 50 , 50)&quot;&gt;100&lt;/div&gt;" style="ellipse;whiteSpace=wrap;html=1;" parent="1" vertex="1">
          <mxGeometry x="420" y="420" width="120" height="80" as="geometry" />
        </mxCell>
        <mxCell id="UKGjdmG-0EduDdwjn8NC-5" value="&lt;span style=&quot;color: rgb(50 , 50 , 50) ; font-size: 13px ; background-color: rgba(255 , 255 , 255 , 0.01)&quot;&gt;expirationTime:&lt;/span&gt;&lt;div style=&quot;resize: none ; outline: 0px ; font-size: 13px ; color: rgb(50 , 50 , 50)&quot;&gt;101&lt;/div&gt;" style="ellipse;whiteSpace=wrap;html=1;" parent="1" vertex="1">
          <mxGeometry x="680" y="420" width="120" height="80" as="geometry" />
        </mxCell>
        <mxCell id="UKGjdmG-0EduDdwjn8NC-9" value="" style="endArrow=classic;html=1;entryX=0.083;entryY=0.75;entryDx=0;entryDy=0;entryPerimeter=0;" parent="1" target="UKGjdmG-0EduDdwjn8NC-5" edge="1">
          <mxGeometry width="50" height="50" relative="1" as="geometry">
            <mxPoint x="530" y="480" as="sourcePoint" />
            <mxPoint x="630" y="470" as="targetPoint" />
          </mxGeometry>
        </mxCell>
        <mxCell id="UKGjdmG-0EduDdwjn8NC-17" value="next" style="edgeLabel;html=1;align=center;verticalAlign=middle;resizable=0;points=[];" parent="UKGjdmG-0EduDdwjn8NC-9" vertex="1" connectable="0">
          <mxGeometry x="-0.0498" y="-1" relative="1" as="geometry">
            <mxPoint as="offset" />
          </mxGeometry>
        </mxCell>
        <mxCell id="UKGjdmG-0EduDdwjn8NC-11" value="" style="endArrow=classic;html=1;" parent="1" edge="1">
          <mxGeometry width="50" height="50" relative="1" as="geometry">
            <mxPoint x="680" y="450" as="sourcePoint" />
            <mxPoint x="540" y="450" as="targetPoint" />
          </mxGeometry>
        </mxCell>
        <mxCell id="UKGjdmG-0EduDdwjn8NC-16" value="previous" style="edgeLabel;html=1;align=center;verticalAlign=middle;resizable=0;points=[];" parent="UKGjdmG-0EduDdwjn8NC-11" vertex="1" connectable="0">
          <mxGeometry x="0.0143" y="-1" relative="1" as="geometry">
            <mxPoint as="offset" />
          </mxGeometry>
        </mxCell>
        <mxCell id="UKGjdmG-0EduDdwjn8NC-14" value="" style="endArrow=classic;html=1;edgeStyle=orthogonalEdgeStyle;entryX=1;entryY=0.5;entryDx=0;entryDy=0;" parent="1" target="UKGjdmG-0EduDdwjn8NC-5" edge="1">
          <mxGeometry width="50" height="50" relative="1" as="geometry">
            <mxPoint x="420" y="450" as="sourcePoint" />
            <mxPoint x="490" y="330" as="targetPoint" />
            <Array as="points">
              <mxPoint x="390" y="450" />
              <mxPoint x="390" y="410" />
              <mxPoint x="830" y="410" />
              <mxPoint x="830" y="460" />
            </Array>
          </mxGeometry>
        </mxCell>
        <mxCell id="UKGjdmG-0EduDdwjn8NC-20" value="previous" style="edgeLabel;html=1;align=center;verticalAlign=middle;resizable=0;points=[];" parent="UKGjdmG-0EduDdwjn8NC-14" vertex="1" connectable="0">
          <mxGeometry x="0.0305" relative="1" as="geometry">
            <mxPoint as="offset" />
          </mxGeometry>
        </mxCell>
        <mxCell id="UKGjdmG-0EduDdwjn8NC-18" value="" style="endArrow=classic;html=1;edgeStyle=orthogonalEdgeStyle;entryX=0.042;entryY=0.7;entryDx=0;entryDy=0;entryPerimeter=0;" parent="1" target="UKGjdmG-0EduDdwjn8NC-4" edge="1">
          <mxGeometry width="50" height="50" relative="1" as="geometry">
            <mxPoint x="790" y="485" as="sourcePoint" />
            <mxPoint x="400" y="510" as="targetPoint" />
            <Array as="points">
              <mxPoint x="830" y="485" />
              <mxPoint x="830" y="520" />
              <mxPoint x="390" y="520" />
              <mxPoint x="390" y="476" />
            </Array>
          </mxGeometry>
        </mxCell>
        <mxCell id="UKGjdmG-0EduDdwjn8NC-19" value="next" style="edgeLabel;html=1;align=center;verticalAlign=middle;resizable=0;points=[];" parent="UKGjdmG-0EduDdwjn8NC-18" vertex="1" connectable="0">
          <mxGeometry x="-0.1112" y="2" relative="1" as="geometry">
            <mxPoint as="offset" />
          </mxGeometry>
        </mxCell>
        <mxCell id="UKGjdmG-0EduDdwjn8NC-21" value="&lt;span style=&quot;color: rgb(50 , 50 , 50) ; font-size: 13px ; background-color: rgba(255 , 255 , 255 , 0.01)&quot;&gt;expirationTime:&lt;/span&gt;&lt;div style=&quot;resize: none ; outline: 0px ; font-size: 13px ; color: rgb(50 , 50 , 50)&quot;&gt;100&lt;/div&gt;" style="ellipse;whiteSpace=wrap;html=1;" parent="1" vertex="1">
          <mxGeometry x="420" y="770" width="120" height="80" as="geometry" />
        </mxCell>
        <mxCell id="UKGjdmG-0EduDdwjn8NC-22" value="&lt;span style=&quot;color: rgb(50 , 50 , 50) ; font-size: 13px ; background-color: rgba(255 , 255 , 255 , 0.01)&quot;&gt;expirationTime:&lt;/span&gt;&lt;div style=&quot;resize: none ; outline: 0px ; font-size: 13px ; color: rgb(50 , 50 , 50)&quot;&gt;101&lt;/div&gt;" style="ellipse;whiteSpace=wrap;html=1;" parent="1" vertex="1">
          <mxGeometry x="680" y="770" width="120" height="80" as="geometry" />
        </mxCell>
        <mxCell id="UKGjdmG-0EduDdwjn8NC-23" value="" style="endArrow=classic;html=1;entryX=0.083;entryY=0.75;entryDx=0;entryDy=0;entryPerimeter=0;" parent="1" target="UKGjdmG-0EduDdwjn8NC-22" edge="1">
          <mxGeometry width="50" height="50" relative="1" as="geometry">
            <mxPoint x="530" y="830" as="sourcePoint" />
            <mxPoint x="630" y="820" as="targetPoint" />
          </mxGeometry>
        </mxCell>
        <mxCell id="UKGjdmG-0EduDdwjn8NC-24" value="next" style="edgeLabel;html=1;align=center;verticalAlign=middle;resizable=0;points=[];" parent="UKGjdmG-0EduDdwjn8NC-23" vertex="1" connectable="0">
          <mxGeometry x="-0.0498" y="-1" relative="1" as="geometry">
            <mxPoint as="offset" />
          </mxGeometry>
        </mxCell>
        <mxCell id="UKGjdmG-0EduDdwjn8NC-25" value="" style="endArrow=classic;html=1;" parent="1" edge="1">
          <mxGeometry width="50" height="50" relative="1" as="geometry">
            <mxPoint x="680" y="800" as="sourcePoint" />
            <mxPoint x="540" y="800" as="targetPoint" />
          </mxGeometry>
        </mxCell>
        <mxCell id="UKGjdmG-0EduDdwjn8NC-26" value="previous" style="edgeLabel;html=1;align=center;verticalAlign=middle;resizable=0;points=[];" parent="UKGjdmG-0EduDdwjn8NC-25" vertex="1" connectable="0">
          <mxGeometry x="0.0143" y="-1" relative="1" as="geometry">
            <mxPoint as="offset" />
          </mxGeometry>
        </mxCell>
        <mxCell id="UKGjdmG-0EduDdwjn8NC-27" value="" style="endArrow=classic;html=1;edgeStyle=orthogonalEdgeStyle;entryX=1;entryY=0.5;entryDx=0;entryDy=0;" parent="1" target="UKGjdmG-0EduDdwjn8NC-31" edge="1">
          <mxGeometry width="50" height="50" relative="1" as="geometry">
            <mxPoint x="420" y="800" as="sourcePoint" />
            <mxPoint x="490" y="680" as="targetPoint" />
            <Array as="points">
              <mxPoint x="390" y="800" />
              <mxPoint x="390" y="760" />
              <mxPoint x="1050" y="760" />
              <mxPoint x="1050" y="810" />
            </Array>
          </mxGeometry>
        </mxCell>
        <mxCell id="UKGjdmG-0EduDdwjn8NC-28" value="previous" style="edgeLabel;html=1;align=center;verticalAlign=middle;resizable=0;points=[];" parent="UKGjdmG-0EduDdwjn8NC-27" vertex="1" connectable="0">
          <mxGeometry x="0.0305" relative="1" as="geometry">
            <mxPoint as="offset" />
          </mxGeometry>
        </mxCell>
        <mxCell id="UKGjdmG-0EduDdwjn8NC-29" value="" style="endArrow=classic;html=1;entryX=0.092;entryY=0.8;entryDx=0;entryDy=0;entryPerimeter=0;" parent="1" target="UKGjdmG-0EduDdwjn8NC-31" edge="1">
          <mxGeometry width="50" height="50" relative="1" as="geometry">
            <mxPoint x="790" y="835" as="sourcePoint" />
            <mxPoint x="400" y="860" as="targetPoint" />
          </mxGeometry>
        </mxCell>
        <mxCell id="UKGjdmG-0EduDdwjn8NC-30" value="next" style="edgeLabel;html=1;align=center;verticalAlign=middle;resizable=0;points=[];" parent="UKGjdmG-0EduDdwjn8NC-29" vertex="1" connectable="0">
          <mxGeometry x="-0.1112" y="2" relative="1" as="geometry">
            <mxPoint as="offset" />
          </mxGeometry>
        </mxCell>
        <mxCell id="UKGjdmG-0EduDdwjn8NC-34" style="edgeStyle=orthogonalEdgeStyle;rounded=0;orthogonalLoop=1;jettySize=auto;html=1;exitX=1;exitY=1;exitDx=0;exitDy=0;entryX=0;entryY=1;entryDx=0;entryDy=0;" parent="1" source="UKGjdmG-0EduDdwjn8NC-31" target="UKGjdmG-0EduDdwjn8NC-21" edge="1">
          <mxGeometry relative="1" as="geometry">
            <Array as="points">
              <mxPoint x="1040" y="838" />
              <mxPoint x="1040" y="880" />
              <mxPoint x="390" y="880" />
              <mxPoint x="390" y="838" />
            </Array>
          </mxGeometry>
        </mxCell>
        <mxCell id="UKGjdmG-0EduDdwjn8NC-35" value="next" style="edgeLabel;html=1;align=center;verticalAlign=middle;resizable=0;points=[];" parent="UKGjdmG-0EduDdwjn8NC-34" vertex="1" connectable="0">
          <mxGeometry x="0.0772" relative="1" as="geometry">
            <mxPoint as="offset" />
          </mxGeometry>
        </mxCell>
        <mxCell id="UKGjdmG-0EduDdwjn8NC-36" style="edgeStyle=orthogonalEdgeStyle;rounded=0;orthogonalLoop=1;jettySize=auto;html=1;exitX=0;exitY=0.5;exitDx=0;exitDy=0;entryX=1;entryY=0.5;entryDx=0;entryDy=0;" parent="1" source="UKGjdmG-0EduDdwjn8NC-31" target="UKGjdmG-0EduDdwjn8NC-22" edge="1">
          <mxGeometry relative="1" as="geometry" />
        </mxCell>
        <mxCell id="UKGjdmG-0EduDdwjn8NC-37" value="previous" style="edgeLabel;html=1;align=center;verticalAlign=middle;resizable=0;points=[];" parent="UKGjdmG-0EduDdwjn8NC-36" vertex="1" connectable="0">
          <mxGeometry x="-0.0667" y="2" relative="1" as="geometry">
            <mxPoint as="offset" />
          </mxGeometry>
        </mxCell>
        <mxCell id="UKGjdmG-0EduDdwjn8NC-31" value="&lt;span style=&quot;color: rgb(50 , 50 , 50) ; font-size: 13px ; background-color: rgba(255 , 255 , 255 , 0.01)&quot;&gt;expirationTime:&lt;/span&gt;&lt;div style=&quot;resize: none ; outline: 0px ; font-size: 13px ; color: rgb(50 , 50 , 50)&quot;&gt;102&lt;/div&gt;" style="ellipse;whiteSpace=wrap;html=1;" parent="1" vertex="1">
          <mxGeometry x="890" y="770" width="120" height="80" as="geometry" />
        </mxCell>
        <mxCell id="UKGjdmG-0EduDdwjn8NC-38" value="" style="shape=flexArrow;endArrow=classic;html=1;" parent="1" edge="1">
          <mxGeometry width="50" height="50" relative="1" as="geometry">
            <mxPoint x="620" y="560" as="sourcePoint" />
            <mxPoint x="620" y="650" as="targetPoint" />
          </mxGeometry>
        </mxCell>
        <mxCell id="UKGjdmG-0EduDdwjn8NC-41" style="edgeStyle=none;rounded=0;orthogonalLoop=1;jettySize=auto;html=1;exitX=0.5;exitY=1;exitDx=0;exitDy=0;" parent="1" source="UKGjdmG-0EduDdwjn8NC-39" edge="1">
          <mxGeometry relative="1" as="geometry">
            <mxPoint x="475" y="390" as="targetPoint" />
          </mxGeometry>
        </mxCell>
        <mxCell id="UKGjdmG-0EduDdwjn8NC-39" value="&lt;span style=&quot;color: rgb(50 , 50 , 50) ; font-size: 13px ; background-color: rgba(255 , 255 , 255 , 0.01)&quot;&gt;firstCallbackNode&lt;/span&gt;" style="rounded=1;whiteSpace=wrap;html=1;" parent="1" vertex="1">
          <mxGeometry x="420" y="320" width="110" height="30" as="geometry" />
        </mxCell>
        <mxCell id="UKGjdmG-0EduDdwjn8NC-42" style="edgeStyle=none;rounded=0;orthogonalLoop=1;jettySize=auto;html=1;exitX=0.5;exitY=1;exitDx=0;exitDy=0;" parent="1" source="UKGjdmG-0EduDdwjn8NC-43" edge="1">
          <mxGeometry relative="1" as="geometry">
            <mxPoint x="475" y="740" as="targetPoint" />
          </mxGeometry>
        </mxCell>
        <mxCell id="UKGjdmG-0EduDdwjn8NC-43" value="&lt;span style=&quot;color: rgb(50 , 50 , 50) ; font-size: 13px ; background-color: rgba(255 , 255 , 255 , 0.01)&quot;&gt;firstCallbackNode&lt;/span&gt;" style="rounded=1;whiteSpace=wrap;html=1;" parent="1" vertex="1">
          <mxGeometry x="420" y="670" width="110" height="30" as="geometry" />
        </mxCell>
        <mxCell id="UKGjdmG-0EduDdwjn8NC-44" value="&lt;span style=&quot;color: rgb(50 , 50 , 50) ; font-size: 13px ; background-color: rgba(255 , 255 , 255 , 0.01)&quot;&gt;newNode&lt;/span&gt;" style="ellipse;whiteSpace=wrap;html=1;" parent="1" vertex="1">
          <mxGeometry x="400" y="110" width="120" height="80" as="geometry" />
        </mxCell>
        <mxCell id="UKGjdmG-0EduDdwjn8NC-45" value="&lt;span style=&quot;color: rgb(50 , 50 , 50) ; font-size: 13px ; background-color: rgba(255 , 255 , 255 , 0.01)&quot;&gt;firstCallbackNode&lt;/span&gt;" style="rounded=1;whiteSpace=wrap;html=1;" parent="1" vertex="1">
          <mxGeometry x="400" y="20" width="110" height="30" as="geometry" />
        </mxCell>
        <mxCell id="UKGjdmG-0EduDdwjn8NC-47" value="" style="shape=flexArrow;endArrow=classic;html=1;" parent="1" edge="1">
          <mxGeometry width="50" height="50" relative="1" as="geometry">
            <mxPoint x="550" y="90" as="sourcePoint" />
            <mxPoint x="630" y="90" as="targetPoint" />
          </mxGeometry>
        </mxCell>
        <mxCell id="UKGjdmG-0EduDdwjn8NC-48" value="&lt;span style=&quot;color: rgb(50 , 50 , 50) ; font-size: 13px ; background-color: rgba(255 , 255 , 255 , 0.01)&quot;&gt;newNode&lt;/span&gt;" style="ellipse;whiteSpace=wrap;html=1;" parent="1" vertex="1">
          <mxGeometry x="760" y="110" width="120" height="80" as="geometry" />
        </mxCell>
        <mxCell id="UKGjdmG-0EduDdwjn8NC-50" style="edgeStyle=none;rounded=0;orthogonalLoop=1;jettySize=auto;html=1;exitX=0.5;exitY=1;exitDx=0;exitDy=0;" parent="1" source="UKGjdmG-0EduDdwjn8NC-49" edge="1">
          <mxGeometry relative="1" as="geometry">
            <mxPoint x="815" y="100" as="targetPoint" />
          </mxGeometry>
        </mxCell>
        <mxCell id="UKGjdmG-0EduDdwjn8NC-49" value="&lt;span style=&quot;color: rgb(50 , 50 , 50) ; font-size: 13px ; background-color: rgba(255 , 255 , 255 , 0.01)&quot;&gt;firstCallbackNode&lt;/span&gt;" style="rounded=1;whiteSpace=wrap;html=1;" parent="1" vertex="1">
          <mxGeometry x="760" y="20" width="110" height="30" as="geometry" />
        </mxCell>
        <mxCell id="UKGjdmG-0EduDdwjn8NC-51" style="edgeStyle=orthogonalEdgeStyle;rounded=0;orthogonalLoop=1;jettySize=auto;html=1;exitX=1;exitY=0.5;exitDx=0;exitDy=0;entryX=0.6;entryY=1.038;entryDx=0;entryDy=0;entryPerimeter=0;" parent="1" source="UKGjdmG-0EduDdwjn8NC-48" target="UKGjdmG-0EduDdwjn8NC-48" edge="1">
          <mxGeometry relative="1" as="geometry" />
        </mxCell>
        <mxCell id="UKGjdmG-0EduDdwjn8NC-54" value="next" style="edgeLabel;html=1;align=center;verticalAlign=middle;resizable=0;points=[];" parent="UKGjdmG-0EduDdwjn8NC-51" vertex="1" connectable="0">
          <mxGeometry x="0.2003" y="2" relative="1" as="geometry">
            <mxPoint as="offset" />
          </mxGeometry>
        </mxCell>
        <mxCell id="UKGjdmG-0EduDdwjn8NC-52" style="edgeStyle=orthogonalEdgeStyle;rounded=0;orthogonalLoop=1;jettySize=auto;html=1;exitX=0;exitY=0.5;exitDx=0;exitDy=0;entryX=0.375;entryY=1.025;entryDx=0;entryDy=0;entryPerimeter=0;" parent="1" source="UKGjdmG-0EduDdwjn8NC-48" target="UKGjdmG-0EduDdwjn8NC-48" edge="1">
          <mxGeometry relative="1" as="geometry" />
        </mxCell>
        <mxCell id="UKGjdmG-0EduDdwjn8NC-53" value="previous" style="edgeLabel;html=1;align=center;verticalAlign=middle;resizable=0;points=[];" parent="UKGjdmG-0EduDdwjn8NC-52" vertex="1" connectable="0">
          <mxGeometry x="0.5215" y="-3" relative="1" as="geometry">
            <mxPoint as="offset" />
          </mxGeometry>
        </mxCell>
        <mxCell id="fHym0VGNEExRuOPP1YIy-1" value="" style="whiteSpace=wrap;html=1;aspect=fixed;" vertex="1" parent="1">
          <mxGeometry x="470" y="1500" width="280" height="280" as="geometry" />
        </mxCell>
        <mxCell id="fHym0VGNEExRuOPP1YIy-2" value="" style="endArrow=none;html=1;exitX=0;exitY=1;exitDx=0;exitDy=0;" edge="1" parent="1" source="fHym0VGNEExRuOPP1YIy-1">
          <mxGeometry width="50" height="50" relative="1" as="geometry">
            <mxPoint x="700" y="1550" as="sourcePoint" />
            <mxPoint x="750" y="1500" as="targetPoint" />
          </mxGeometry>
        </mxCell>
        <mxCell id="fHym0VGNEExRuOPP1YIy-3" value="顶点A" style="text;html=1;align=center;verticalAlign=middle;resizable=0;points=[];autosize=1;" vertex="1" parent="1">
          <mxGeometry x="405" y="1460" width="50" height="20" as="geometry" />
        </mxCell>
        <mxCell id="fHym0VGNEExRuOPP1YIy-4" value="顶点A" style="text;html=1;align=center;verticalAlign=middle;resizable=0;points=[];autosize=1;" vertex="1" parent="1">
          <mxGeometry x="780" y="1460" width="50" height="20" as="geometry" />
        </mxCell>
        <mxCell id="fHym0VGNEExRuOPP1YIy-5" value="顶点A" style="text;html=1;align=center;verticalAlign=middle;resizable=0;points=[];autosize=1;" vertex="1" parent="1">
          <mxGeometry x="780" y="1780" width="50" height="20" as="geometry" />
        </mxCell>
        <mxCell id="fHym0VGNEExRuOPP1YIy-6" value="顶点A" style="text;html=1;align=center;verticalAlign=middle;resizable=0;points=[];autosize=1;" vertex="1" parent="1">
          <mxGeometry x="400" y="1790" width="50" height="20" as="geometry" />
        </mxCell>
        <mxCell id="fHym0VGNEExRuOPP1YIy-8" value="顶点缓冲区" style="text;html=1;align=center;verticalAlign=middle;resizable=0;points=[];autosize=1;" vertex="1" parent="1">
          <mxGeometry x="920" y="1480" width="80" height="20" as="geometry" />
        </mxCell>
        <mxCell id="fHym0VGNEExRuOPP1YIy-9" value="顶点A" style="rounded=0;whiteSpace=wrap;html=1;" vertex="1" parent="1">
          <mxGeometry x="1050" y="1460" width="90" height="50" as="geometry" />
        </mxCell>
        <mxCell id="fHym0VGNEExRuOPP1YIy-10" value="顶点B" style="rounded=0;whiteSpace=wrap;html=1;" vertex="1" parent="1">
          <mxGeometry x="1140" y="1460" width="90" height="50" as="geometry" />
        </mxCell>
        <mxCell id="fHym0VGNEExRuOPP1YIy-11" value="顶点D" style="rounded=0;whiteSpace=wrap;html=1;" vertex="1" parent="1">
          <mxGeometry x="1320" y="1460" width="90" height="50" as="geometry" />
        </mxCell>
        <mxCell id="fHym0VGNEExRuOPP1YIy-12" value="顶点C" style="rounded=0;whiteSpace=wrap;html=1;" vertex="1" parent="1">
          <mxGeometry x="1230" y="1460" width="90" height="50" as="geometry" />
        </mxCell>
        <mxCell id="fHym0VGNEExRuOPP1YIy-14" value="索引缓冲区" style="text;html=1;align=center;verticalAlign=middle;resizable=0;points=[];autosize=1;" vertex="1" parent="1">
          <mxGeometry x="900" y="1590" width="80" height="20" as="geometry" />
        </mxCell>
        <mxCell id="fHym0VGNEExRuOPP1YIy-21" style="edgeStyle=orthogonalEdgeStyle;rounded=0;orthogonalLoop=1;jettySize=auto;html=1;exitX=0.5;exitY=0;exitDx=0;exitDy=0;entryX=0.5;entryY=1;entryDx=0;entryDy=0;fillColor=#f8cecc;strokeColor=#b85450;" edge="1" parent="1" source="fHym0VGNEExRuOPP1YIy-15" target="fHym0VGNEExRuOPP1YIy-9">
          <mxGeometry relative="1" as="geometry" />
        </mxCell>
        <mxCell id="fHym0VGNEExRuOPP1YIy-15" value="0" style="rounded=0;whiteSpace=wrap;html=1;" vertex="1" parent="1">
          <mxGeometry x="1050" y="1575" width="90" height="50" as="geometry" />
        </mxCell>
        <mxCell id="fHym0VGNEExRuOPP1YIy-22" style="edgeStyle=orthogonalEdgeStyle;rounded=0;orthogonalLoop=1;jettySize=auto;html=1;exitX=0.5;exitY=0;exitDx=0;exitDy=0;entryX=0.5;entryY=1;entryDx=0;entryDy=0;fillColor=#f8cecc;strokeColor=#b85450;" edge="1" parent="1" source="fHym0VGNEExRuOPP1YIy-16" target="fHym0VGNEExRuOPP1YIy-10">
          <mxGeometry relative="1" as="geometry" />
        </mxCell>
        <mxCell id="fHym0VGNEExRuOPP1YIy-16" value="1" style="rounded=0;whiteSpace=wrap;html=1;" vertex="1" parent="1">
          <mxGeometry x="1140" y="1575" width="90" height="50" as="geometry" />
        </mxCell>
        <mxCell id="fHym0VGNEExRuOPP1YIy-25" style="rounded=0;orthogonalLoop=1;jettySize=auto;html=1;exitX=0.5;exitY=0;exitDx=0;exitDy=0;entryX=0.667;entryY=1.06;entryDx=0;entryDy=0;entryPerimeter=0;fillColor=#dae8fc;strokeColor=#6c8ebf;" edge="1" parent="1" source="fHym0VGNEExRuOPP1YIy-17" target="fHym0VGNEExRuOPP1YIy-10">
          <mxGeometry relative="1" as="geometry" />
        </mxCell>
        <mxCell id="fHym0VGNEExRuOPP1YIy-17" value="1" style="rounded=0;whiteSpace=wrap;html=1;" vertex="1" parent="1">
          <mxGeometry x="1320" y="1575" width="90" height="50" as="geometry" />
        </mxCell>
        <mxCell id="fHym0VGNEExRuOPP1YIy-23" style="edgeStyle=orthogonalEdgeStyle;rounded=0;orthogonalLoop=1;jettySize=auto;html=1;exitX=0.5;exitY=0;exitDx=0;exitDy=0;entryX=0.5;entryY=1;entryDx=0;entryDy=0;fillColor=#f8cecc;strokeColor=#b85450;" edge="1" parent="1" source="fHym0VGNEExRuOPP1YIy-18" target="fHym0VGNEExRuOPP1YIy-12">
          <mxGeometry relative="1" as="geometry" />
        </mxCell>
        <mxCell id="fHym0VGNEExRuOPP1YIy-18" value="2" style="rounded=0;whiteSpace=wrap;html=1;" vertex="1" parent="1">
          <mxGeometry x="1230" y="1575" width="90" height="50" as="geometry" />
        </mxCell>
        <mxCell id="fHym0VGNEExRuOPP1YIy-26" style="rounded=0;orthogonalLoop=1;jettySize=auto;html=1;exitX=0.5;exitY=0;exitDx=0;exitDy=0;entryX=0.75;entryY=1;entryDx=0;entryDy=0;fillColor=#dae8fc;strokeColor=#6c8ebf;" edge="1" parent="1" source="fHym0VGNEExRuOPP1YIy-19" target="fHym0VGNEExRuOPP1YIy-12">
          <mxGeometry relative="1" as="geometry" />
        </mxCell>
        <mxCell id="fHym0VGNEExRuOPP1YIy-19" value="2" style="rounded=0;whiteSpace=wrap;html=1;" vertex="1" parent="1">
          <mxGeometry x="1410" y="1575" width="90" height="50" as="geometry" />
        </mxCell>
        <mxCell id="fHym0VGNEExRuOPP1YIy-27" style="rounded=0;orthogonalLoop=1;jettySize=auto;html=1;entryX=0.5;entryY=1;entryDx=0;entryDy=0;fillColor=#d5e8d4;strokeColor=#82b366;" edge="1" parent="1" source="fHym0VGNEExRuOPP1YIy-20" target="fHym0VGNEExRuOPP1YIy-11">
          <mxGeometry relative="1" as="geometry" />
        </mxCell>
        <mxCell id="fHym0VGNEExRuOPP1YIy-20" value="3" style="rounded=0;whiteSpace=wrap;html=1;" vertex="1" parent="1">
          <mxGeometry x="1500" y="1575" width="90" height="50" as="geometry" />
        </mxCell>
        <mxCell id="fHym0VGNEExRuOPP1YIy-28" value="第一个三角形:&amp;nbsp; &amp;nbsp;0, 1, 2" style="text;html=1;align=center;verticalAlign=middle;resizable=0;points=[];autosize=1;" vertex="1" parent="1">
          <mxGeometry x="925" y="1690" width="130" height="20" as="geometry" />
        </mxCell>
        <mxCell id="fHym0VGNEExRuOPP1YIy-29" value="&lt;span style=&quot;color: rgb(0 , 0 , 0) ; font-family: &amp;#34;helvetica&amp;#34; ; font-size: 12px ; font-style: normal ; font-weight: 400 ; letter-spacing: normal ; text-align: center ; text-indent: 0px ; text-transform: none ; word-spacing: 0px ; background-color: rgb(248 , 249 , 250) ; display: inline ; float: none&quot;&gt;第一个三角形:&amp;nbsp; &amp;nbsp;1, 2, 3&lt;/span&gt;" style="text;whiteSpace=wrap;html=1;" vertex="1" parent="1">
          <mxGeometry x="930" y="1740" width="140" height="30" as="geometry" />
        </mxCell>
      </root>
    </mxGraphModel>
  </diagram>
</mxfile>
